<svg id="Layer_5" enable-background="new 0 0 64 64" height="512" viewBox="0 0 64 64" width="512" xmlns="http://www.w3.org/2000/svg"><g><g><g><path d="m6 48c-2.21 0-4 1.79-4 4v-46c0-2.21 1.79-4 4-4h30c2.21 0 4 1.79 4 4v42z" fill="#cf9e76"/></g><g><path d="m6 48v4h8v4h-8c-1.1 0-2.1-.45-2.83-1.17-.72-.73-1.17-1.73-1.17-2.83 0-2.21 1.79-4 4-4z" fill="#dfb28b"/></g><g><path d="m22 52h-8-8v-4h34c-2.21 0-4 1.79-4 4 0 1.1.45 2.1 1.17 2.83.73.72 1.73 1.17 2.83 1.17h-18z" fill="#dfb28b"/></g><g><path d="m22 56v5l-4-2-4 2v-5-4h8z" fill="#fcd770"/></g><g><path d="m35 10h-28c-.55 0-1 .45-1 1v23 5c0 .55.45 1 1 1h28c.55 0 1-.45 1-1v-21-7c0-.55-.45-1-1-1z" fill="#e6e9ed"/></g><g><path d="m32 25v10c0 .55-.45 1-1 1h-12c-.55 0-1-.45-1-1v-1-8h5c.55 0 1-.45 1-1v-1h7c.55 0 1 .45 1 1z" fill="#4fc1e9"/></g><g><path d="m24 24v1c0 .55-.45 1-1 1h-5-7c-.55 0-1-.45-1-1v-10c0-.55.45-1 1-1h12c.55 0 1 .45 1 1v3z" fill="#ff826e"/></g><g><path d="m62 14v12c0 1.1-.9 2-2 2s-2-.9-2-2v-10-2c0-1.1.9-2 2-2 .55 0 1.05.22 1.41.59.37.36.59.86.59 1.41z" fill="#aab2bd"/></g><g><path d="m55 56v4l-2 2h-2v-6z" fill="#aab2bd"/></g><g><path d="m56 4v4h-6v-4c0-1.1.9-2 2-2h2c1.1 0 2 .9 2 2z" fill="#aab2bd"/></g><g><path d="m56 8c1.1 0 2 .9 2 2v4 2h-10v-6c0-1.1.9-2 2-2z" fill="#ffc729"/></g><g><path d="m58 50-3 6h-4l-3-6z" fill="#ffc729"/></g><g><path d="m58 26v24h-10v-34h10z" fill="#fcd770"/></g></g><g><path d="m36 1h-30c-2.757 0-5 2.243-5 5v46c0 2.757 2.243 5 5 5h7v5.618l5-2.5 5 2.5v-5.618h18v-2h-1c-1.654 0-3-1.346-3-3s1.346-3 3-3h1v-43c0-2.757-2.243-5-5-5zm-33 5c0-1.654 1.346-3 3-3h30c1.654 0 3 1.346 3 3v41h-33c-1.125 0-2.164.373-3 1.002zm3 49c-1.654 0-3-1.346-3-3 0-1.302.839-2.402 2-2.816v3.816h8v2zm12 2.882-3 1.5v-6.382h6v6.382zm18.026-2.882h-13.026v-2h10v-2h-26v-2h29.026c-.635.838-1.026 1.87-1.026 3s.391 2.162 1.026 3z"/><path d="m35 41c1.103 0 2-.897 2-2v-28c0-1.103-.897-2-2-2h-28c-1.103 0-2 .897-2 2v28c0 1.103.897 2 2 2zm-28-30h28l.001 28h-28.001z"/><path d="m16 5h2v2h-2z"/><path d="m20 5h6v2h-6z"/><path d="m17 43h8v2h-8z"/><path d="m31 23h-6v-8c0-1.103-.897-2-2-2h-12c-1.103 0-2 .897-2 2v10c0 1.103.897 2 2 2h6v8c0 1.103.897 2 2 2h12c1.103 0 2-.897 2-2v-10c0-1.103-.897-2-2-2zm-20-8h12l.001 10h-12.001zm20 20h-12v-8h4c1.103 0 2-.897 2-2h6z"/><path d="m27 13h6v2h-6z"/><path d="m27 17h6v2h-6z"/><path d="m9 29h6v2h-6z"/><path d="m9 33h6v2h-6z"/><path d="m60 11c-.352 0-.686.072-1 .184v-1.184c0-1.302-.839-2.402-2-2.816v-3.184c0-1.654-1.346-3-3-3h-2c-1.654 0-3 1.346-3 3v3.184c-1.161.414-2 1.514-2 2.816v40.236l3 6v6.764h3.414l2.586-2.586v-4.178l3-6v-21.42c.314.112.648.184 1 .184 1.654 0 3-1.346 3-3v-12c0-1.654-1.346-3-3-3zm-3 38h-8v-32h8v9zm-5.382 6-2-4h6.764l-2 4zm.382-52h2c.551 0 1 .448 1 1v3h-4v-3c0-.552.449-1 1-1zm-2 6h6c.551 0 1 .448 1 1v4 1h-8v-5c0-.552.449-1 1-1zm2.586 52h-.586v-4h2v2.586zm8.414-35c0 .552-.449 1-1 1s-1-.448-1-1v-12c0-.552.449-1 1-1s1 .448 1 1z"/></g></g></svg>